<?xml version="1.0" encoding="UTF-8" standalone="no"?>
<svg
   xmlns:dc="http://purl.org/dc/elements/1.1/"
   xmlns:cc="http://creativecommons.org/ns#"
   xmlns:rdf="http://www.w3.org/1999/02/22-rdf-syntax-ns#"
   xmlns:svg="http://www.w3.org/2000/svg"
   xmlns="http://www.w3.org/2000/svg"
   xmlns:sodipodi="http://sodipodi.sourceforge.net/DTD/sodipodi-0.dtd"
   xmlns:inkscape="http://www.inkscape.org/namespaces/inkscape"
   viewBox="0 0 576 576"
   version="1.1"
   id="svg8"
   sodipodi:docname="thumbnail.svg"
   width="576"
   height="576"
   inkscape:version="0.92.1 r15371"
   inkscape:export-filename="/home/branko/projects/factorio/inventory-templates/thumbnail.png"
   inkscape:export-xdpi="24"
   inkscape:export-ydpi="24">
  <metadata
     id="metadata14">
    <rdf:RDF>
      <cc:Work
         rdf:about="">
        <dc:format>image/svg+xml</dc:format>
        <dc:type
           rdf:resource="http://purl.org/dc/dcmitype/StillImage" />
        <dc:title />
      </cc:Work>
    </rdf:RDF>
  </metadata>
  <defs
     id="defs12" />
  <sodipodi:namedview
     pagecolor="#ffffff"
     bordercolor="#666666"
     borderopacity="1"
     objecttolerance="10"
     gridtolerance="10"
     guidetolerance="10"
     inkscape:pageopacity="0"
     inkscape:pageshadow="2"
     inkscape:window-width="1920"
     inkscape:window-height="1027"
     id="namedview10"
     showgrid="false"
     inkscape:zoom="0.70710678"
     inkscape:cx="256.79207"
     inkscape:cy="353.97001"
     inkscape:window-x="0"
     inkscape:window-y="0"
     inkscape:window-maximized="1"
     inkscape:current-layer="svg8"
     units="in"
     width="576in"
     inkscape:measure-start="143.186,143.729"
     inkscape:measure-end="143.729,432.814" />
  <path
     style="fill:#000000;fill-opacity:1;stroke-width:1.125"
     inkscape:connector-curvature="0"
     d="M 0,0 H 576 V 576 H 0 Z"
     id="path2" />
  <g
     transform="matrix(8,0,0,8,32,32)"
     id="g7191"
     style="fill:#ffffff">
    <path
       style="fill:#ffffff;fill-opacity:1"
       d="M 0,0.5 V 0 H 0.5 1 1.5 2 2.5 3 3.5 4 4.5 5 5.5 6 6.5 7 7.5 8 V 0.5 Q 8,1 8,1.5 8,2 7.5,2 7,2 6.5,2 6,2 5.5,2 5,2 4.5,2 4,2 3.5,2 3,2 2.5,2 2,2 2,2.5 2,3 2,3.5 2,4 2,4.5 2,5 2,5.5 2,6 2,6.5 2,7 2,7.5 2,8 1.5,8 1,8 0.5,8 H 0 V 7.5 7 6.5 6 5.5 5 4.5 4 3.5 3 2.5 2 1.5 1 0.5"
       id="path7157"
       inkscape:connector-curvature="0" />
    <path
       style="fill:#ffffff;fill-opacity:0"
       d="M 8,0.5 V 0 H 8.5 9 9.5 10 10.5 11 11.5 12 12.5 13 13.5 14 v 0.5 q 0,0.5 0,1 0,0.5 0.5,0.5 0.5,0 1,0 0.5,0 1,0 0.5,0 1,0 0.5,0 1,0 0.5,0 1,0 Q 20,2 20,1.5 20,1 20,0.5 V 0 h 0.5 0.5 0.5 0.5 0.5 0.5 0.5 0.5 0.5 0.5 0.5 0.5 0.5 0.5 0.5 0.5 v 0.5 q 0,0.5 0,1 0,0.5 0.5,0.5 0.5,0 1,0 0.5,0 1,0 0.5,0 1,0 0.5,0 1,0 0.5,0 1,0 0.5,0 1,0 0.5,0 1,0 Q 36,2 36,1.5 36,1 36,0.5 V 0 h 0.5 0.5 0.5 0.5 0.5 0.5 0.5 0.5 0.5 0.5 0.5 0.5 0.5 0.5 0.5 0.5 v 0.5 q 0,0.5 0,1 0,0.5 0.5,0.5 0.5,0 1,0 0.5,0 1,0 0.5,0 1,0 0.5,0 1,0 0.5,0 1,0 Q 50,2 50,1.5 50,1 50,0.5 V 0 h 0.5 0.5 0.5 0.5 0.5 0.5 0.5 0.5 0.5 0.5 0.5 0.5 v 0.5 q 0,0.5 0,1 0,0.5 0.5,0.5 0.5,0 1,0 0.5,0 1,0 0.5,0 1,0 0.5,0 1,0 0.5,0 1,0 0.5,0 0.5,0.5 0,0.5 0,1 0,0.5 0,1 0,0.5 0,1 0,0.5 0,1 0,0.5 0,1 0,0.5 0.5,0.5 0.5,0 1,0 H 64 V 8.5 9 9.5 10 10.5 11 11.5 12 12.5 13 13.5 14 h -0.5 q -0.5,0 -1,0 -0.5,0 -0.5,0.5 0,0.5 0,1 0,0.5 0,1 0,0.5 0,1 0,0.5 0,1 0,0.5 0,1 0,0.5 0.5,0.5 0.5,0 1,0 H 64 v 0.5 0.5 0.5 0.5 0.5 0.5 0.5 0.5 0.5 0.5 0.5 0.5 0.5 0.5 0.5 0.5 h -0.5 q -0.5,0 -1,0 -0.5,0 -0.5,0.5 0,0.5 0,1 0,0.5 0,1 0,0.5 0,1 0,0.5 0,1 0,0.5 0,1 0,0.5 0,1 0,0.5 0,1 0,0.5 0.5,0.5 0.5,0 1,0 H 64 v 0.5 0.5 0.5 0.5 0.5 0.5 0.5 0.5 0.5 0.5 0.5 0.5 0.5 0.5 0.5 0.5 h -0.5 q -0.5,0 -1,0 -0.5,0 -0.5,0.5 0,0.5 0,1 0,0.5 0,1 0,0.5 0,1 0,0.5 0,1 0,0.5 0,1 0,0.5 0.5,0.5 0.5,0 1,0 H 64 v 0.5 0.5 0.5 0.5 0.5 0.5 0.5 0.5 0.5 0.5 0.5 0.5 h -0.5 q -0.5,0 -1,0 -0.5,0 -0.5,0.5 0,0.5 0,1 0,0.5 0,1 0,0.5 0,1 0,0.5 0,1 0,0.5 0,1 0,0.5 -0.5,0.5 -0.5,0 -1,0 -0.5,0 -1,0 -0.5,0 -1,0 -0.5,0 -1,0 -0.5,0 -1,0 -0.5,0 -0.5,0.5 0,0.5 0,1 V 64 H 55.5 55 54.5 54 53.5 53 52.5 52 51.5 51 50.5 50 v -0.5 q 0,-0.5 0,-1 0,-0.5 -0.5,-0.5 -0.5,0 -1,0 -0.5,0 -1,0 -0.5,0 -1,0 -0.5,0 -1,0 -0.5,0 -1,0 -0.5,0 -0.5,0.5 0,0.5 0,1 V 64 H 43.5 43 42.5 42 41.5 41 40.5 40 39.5 39 38.5 38 37.5 37 36.5 36 v -0.5 q 0,-0.5 0,-1 0,-0.5 -0.5,-0.5 -0.5,0 -1,0 -0.5,0 -1,0 -0.5,0 -1,0 -0.5,0 -1,0 -0.5,0 -1,0 -0.5,0 -1,0 -0.5,0 -1,0 -0.5,0 -0.5,0.5 0,0.5 0,1 V 64 H 27.5 27 26.5 26 25.5 25 24.5 24 23.5 23 22.5 22 21.5 21 20.5 20 v -0.5 q 0,-0.5 0,-1 0,-0.5 -0.5,-0.5 -0.5,0 -1,0 -0.5,0 -1,0 -0.5,0 -1,0 -0.5,0 -1,0 -0.5,0 -1,0 -0.5,0 -0.5,0.5 0,0.5 0,1 V 64 H 13.5 13 12.5 12 11.5 11 10.5 10 9.5 9 8.5 8 V 63.5 Q 8,63 8,62.5 8,62 7.5,62 7,62 6.5,62 6,62 5.5,62 5,62 4.5,62 4,62 3.5,62 3,62 2.5,62 2,62 2,61.5 2,61 2,60.5 2,60 2,59.5 2,59 2,58.5 2,58 2,57.5 2,57 2,56.5 2,56 1.5,56 1,56 0.5,56 H 0 V 55.5 55 54.5 54 53.5 53 52.5 52 51.5 51 50.5 50 H 0.5 Q 1,50 1.5,50 2,50 2,49.5 2,49 2,48.5 2,48 2,47.5 2,47 2,46.5 2,46 2,45.5 2,45 2,44.5 2,44 1.5,44 1,44 0.5,44 H 0 V 43.5 43 42.5 42 41.5 41 40.5 40 39.5 39 38.5 38 37.5 37 36.5 36 H 0.5 Q 1,36 1.5,36 2,36 2,35.5 2,35 2,34.5 2,34 2,33.5 2,33 2,32.5 2,32 2,31.5 2,31 2,30.5 2,30 2,29.5 2,29 2,28.5 2,28 1.5,28 1,28 0.5,28 H 0 V 27.5 27 26.5 26 25.5 25 24.5 24 23.5 23 22.5 22 21.5 21 20.5 20 H 0.5 Q 1,20 1.5,20 2,20 2,19.5 2,19 2,18.5 2,18 2,17.5 2,17 2,16.5 2,16 2,15.5 2,15 2,14.5 2,14 1.5,14 1,14 0.5,14 H 0 V 13.5 13 12.5 12 11.5 11 10.5 10 9.5 9 8.5 8 H 0.5 Q 1,8 1.5,8 2,8 2,7.5 2,7 2,6.5 2,6 2,5.5 2,5 2,4.5 2,4 2,3.5 2,3 2,2.5 2,2 2.5,2 3,2 3.5,2 4,2 4.5,2 5,2 5.5,2 6,2 6.5,2 7,2 7.5,2 8,2 8,1.5 8,1 8,0.5"
       id="path7159"
       inkscape:connector-curvature="0" />
    <path
       style="fill:#ffffff;fill-opacity:1"
       d="M 14,0.5 V 0 H 14.5 15 15.5 16 16.5 17 17.5 18 18.5 19 19.5 20 V 0.5 Q 20,1 20,1.5 20,2 19.5,2 19,2 18.5,2 18,2 17.5,2 17,2 16.5,2 16,2 15.5,2 15,2 14.5,2 14,2 14,1.5 14,1 14,0.5"
       id="path7161"
       inkscape:connector-curvature="0" />
    <path
       style="fill:#ffffff;fill-opacity:1"
       d="M 28,0.5 V 0 H 28.5 29 29.5 30 30.5 31 31.5 32 32.5 33 33.5 34 34.5 35 35.5 36 V 0.5 Q 36,1 36,1.5 36,2 35.5,2 35,2 34.5,2 34,2 33.5,2 33,2 32.5,2 32,2 31.5,2 31,2 30.5,2 30,2 29.5,2 29,2 28.5,2 28,2 28,1.5 28,1 28,0.5"
       id="path7163"
       inkscape:connector-curvature="0" />
    <path
       style="fill:#ffffff;fill-opacity:1"
       d="M 44,0.5 V 0 H 44.5 45 45.5 46 46.5 47 47.5 48 48.5 49 49.5 50 V 0.5 Q 50,1 50,1.5 50,2 49.5,2 49,2 48.5,2 48,2 47.5,2 47,2 46.5,2 46,2 45.5,2 45,2 44.5,2 44,2 44,1.5 44,1 44,0.5"
       id="path7165"
       inkscape:connector-curvature="0" />
    <path
       style="fill:#ffffff;fill-opacity:1"
       d="M 56,0.5 V 0 H 56.5 57 57.5 58 58.5 59 59.5 60 60.5 61 61.5 62 62.5 63 63.5 64 V 0.5 1 1.5 2 2.5 3 3.5 4 4.5 5 5.5 6 6.5 7 7.5 8 H 63.5 Q 63,8 62.5,8 62,8 62,7.5 62,7 62,6.5 62,6 62,5.5 62,5 62,4.5 62,4 62,3.5 62,3 62,2.5 62,2 61.5,2 61,2 60.5,2 60,2 59.5,2 59,2 58.5,2 58,2 57.5,2 57,2 56.5,2 56,2 56,1.5 56,1 56,0.5"
       id="path7167"
       inkscape:connector-curvature="0" />
    <path
       style="fill:#ffffff;fill-opacity:1"
       d="M 0,14.5 V 14 h 0.5 q 0.5,0 1,0 0.5,0 0.5,0.5 0,0.5 0,1 0,0.5 0,1 0,0.5 0,1 0,0.5 0,1 0,0.5 0,1 Q 2,20 1.5,20 1,20 0.5,20 H 0 V 19.5 19 18.5 18 17.5 17 16.5 16 15.5 15 14.5"
       id="path7169"
       inkscape:connector-curvature="0" />
    <path
       style="fill:#ffffff;fill-opacity:1"
       d="m 62,14.5 q 0,-0.5 0.5,-0.5 0.5,0 1,0 H 64 v 0.5 0.5 0.5 0.5 0.5 0.5 0.5 0.5 0.5 0.5 0.5 0.5 h -0.5 q -0.5,0 -1,0 -0.5,0 -0.5,-0.5 0,-0.5 0,-1 0,-0.5 0,-1 0,-0.5 0,-1 0,-0.5 0,-1 0,-0.5 0,-1"
       id="path7171"
       inkscape:connector-curvature="0" />
    <path
       style="fill:#ffffff;fill-opacity:1"
       d="M 0,28.5 V 28 h 0.5 q 0.5,0 1,0 0.5,0 0.5,0.5 0,0.5 0,1 0,0.5 0,1 0,0.5 0,1 0,0.5 0,1 0,0.5 0,1 0,0.5 0,1 0,0.5 0,1 Q 2,36 1.5,36 1,36 0.5,36 H 0 V 35.5 35 34.5 34 33.5 33 32.5 32 31.5 31 30.5 30 29.5 29 28.5"
       id="path7173"
       inkscape:connector-curvature="0" />
    <path
       style="fill:#ffffff;fill-opacity:1"
       d="m 62,28.5 q 0,-0.5 0.5,-0.5 0.5,0 1,0 H 64 v 0.5 0.5 0.5 0.5 0.5 0.5 0.5 0.5 0.5 0.5 0.5 0.5 0.5 0.5 0.5 0.5 h -0.5 q -0.5,0 -1,0 -0.5,0 -0.5,-0.5 0,-0.5 0,-1 0,-0.5 0,-1 0,-0.5 0,-1 0,-0.5 0,-1 0,-0.5 0,-1 0,-0.5 0,-1 0,-0.5 0,-1"
       id="path7175"
       inkscape:connector-curvature="0" />
    <path
       style="fill:#ffffff;fill-opacity:1"
       d="M 0,44.5 V 44 h 0.5 q 0.5,0 1,0 0.5,0 0.5,0.5 0,0.5 0,1 0,0.5 0,1 0,0.5 0,1 0,0.5 0,1 0,0.5 0,1 Q 2,50 1.5,50 1,50 0.5,50 H 0 V 49.5 49 48.5 48 47.5 47 46.5 46 45.5 45 44.5"
       id="path7177"
       inkscape:connector-curvature="0" />
    <path
       style="fill:#ffffff;fill-opacity:1"
       d="m 62,44.5 q 0,-0.5 0.5,-0.5 0.5,0 1,0 H 64 v 0.5 0.5 0.5 0.5 0.5 0.5 0.5 0.5 0.5 0.5 0.5 0.5 h -0.5 q -0.5,0 -1,0 -0.5,0 -0.5,-0.5 0,-0.5 0,-1 0,-0.5 0,-1 0,-0.5 0,-1 0,-0.5 0,-1 0,-0.5 0,-1"
       id="path7179"
       inkscape:connector-curvature="0" />
    <path
       style="fill:#ffffff;fill-opacity:1"
       d="M 0,56.5 V 56 h 0.5 q 0.5,0 1,0 0.5,0 0.5,0.5 0,0.5 0,1 0,0.5 0,1 0,0.5 0,1 0,0.5 0,1 0,0.5 0,1 0,0.5 0.5,0.5 0.5,0 1,0 0.5,0 1,0 0.5,0 1,0 0.5,0 1,0 0.5,0 1,0 0.5,0 0.5,0.5 0,0.5 0,1 V 64 H 7.5 7 6.5 6 5.5 5 4.5 4 3.5 3 2.5 2 1.5 1 0.5 0 V 63.5 63 62.5 62 61.5 61 60.5 60 59.5 59 58.5 58 57.5 57 56.5"
       id="path7181"
       inkscape:connector-curvature="0" />
    <path
       style="fill:#ffffff;fill-opacity:1"
       d="m 62,56.5 q 0,-0.5 0.5,-0.5 0.5,0 1,0 H 64 V 56.5 57 57.5 58 58.5 59 59.5 60 60.5 61 61.5 62 62.5 63 63.5 64 H 63.5 63 62.5 62 61.5 61 60.5 60 59.5 59 58.5 58 57.5 57 56.5 56 v -0.5 q 0,-0.5 0,-1 0,-0.5 0.5,-0.5 0.5,0 1,0 0.5,0 1,0 0.5,0 1,0 0.5,0 1,0 0.5,0 1,0 0.5,0 0.5,-0.5 0,-0.5 0,-1 0,-0.5 0,-1 0,-0.5 0,-1 0,-0.5 0,-1 0,-0.5 0,-1"
       id="path7183"
       inkscape:connector-curvature="0" />
    <path
       style="fill:#ffffff;fill-opacity:1"
       d="m 14,62.5 q 0,-0.5 0.5,-0.5 0.5,0 1,0 0.5,0 1,0 0.5,0 1,0 0.5,0 1,0 0.5,0 1,0 0.5,0 0.5,0.5 0,0.5 0,1 V 64 H 19.5 19 18.5 18 17.5 17 16.5 16 15.5 15 14.5 14 v -0.5 q 0,-0.5 0,-1"
       id="path7185"
       inkscape:connector-curvature="0" />
    <path
       style="fill:#ffffff;fill-opacity:1"
       d="m 28,62.5 q 0,-0.5 0.5,-0.5 0.5,0 1,0 0.5,0 1,0 0.5,0 1,0 0.5,0 1,0 0.5,0 1,0 0.5,0 1,0 0.5,0 1,0 0.5,0 0.5,0.5 0,0.5 0,1 V 64 H 35.5 35 34.5 34 33.5 33 32.5 32 31.5 31 30.5 30 29.5 29 28.5 28 v -0.5 q 0,-0.5 0,-1"
       id="path7187"
       inkscape:connector-curvature="0" />
    <path
       style="fill:#ffffff;fill-opacity:1"
       d="m 44,62.5 q 0,-0.5 0.5,-0.5 0.5,0 1,0 0.5,0 1,0 0.5,0 1,0 0.5,0 1,0 0.5,0 1,0 0.5,0 0.5,0.5 0,0.5 0,1 V 64 H 49.5 49 48.5 48 47.5 47 46.5 46 45.5 45 44.5 44 v -0.5 q 0,-0.5 0,-1"
       id="path7189"
       inkscape:connector-curvature="0" />
  </g>
  <rect
     style="opacity:1;fill:none;fill-opacity:1;stroke:#ffffff;stroke-width:15.99999809;stroke-linecap:round;stroke-linejoin:miter;stroke-miterlimit:4;stroke-dasharray:none;stroke-opacity:1"
     id="rect5088"
     width="304"
     height="304"
     x="136"
     y="136" />
  <path
     style="fill:none;stroke:#ffffff;stroke-width:15.99999905;stroke-linecap:butt;stroke-linejoin:miter;stroke-miterlimit:4;stroke-dasharray:none;stroke-opacity:1"
     d="M 128.00074,237 H 448.00075"
     id="path5090"
     inkscape:connector-curvature="0" />
  <path
     style="fill:none;stroke:#ffffff;stroke-width:16;stroke-linecap:butt;stroke-linejoin:miter;stroke-miterlimit:4;stroke-dasharray:none;stroke-opacity:1"
     d="m 128,339 320,-4e-5"
     id="path5090-3"
     inkscape:connector-curvature="0" />
  <path
     style="fill:none;stroke:#ffffff;stroke-width:16;stroke-linecap:butt;stroke-linejoin:miter;stroke-miterlimit:4;stroke-dasharray:none;stroke-opacity:1"
     d="m 339,128 4e-5,319.99999"
     id="path5090-6"
     inkscape:connector-curvature="0" />
  <path
     style="fill:none;stroke:#ffffff;stroke-width:16;stroke-linecap:butt;stroke-linejoin:miter;stroke-miterlimit:4;stroke-dasharray:none;stroke-opacity:1"
     d="m 237,128 4e-5,319.99998"
     id="path5090-3-7"
     inkscape:connector-curvature="0" />
  <path
     style="opacity:1;fill:#000000;fill-opacity:1;stroke:#000000;stroke-width:32;stroke-linecap:round;stroke-linejoin:miter;stroke-miterlimit:4;stroke-dasharray:none;stroke-opacity:1"
     d="m 240.72982,409.00571 v -29.25644 c 0,-26.49481 8.8e-4,-26.51617 1.13057,-27.95238 0.85275,-1.08406 1.20191,-2.40802 1.42085,-5.38755 0.20016,-2.7235 0.61099,-4.42431 1.32307,-5.47672 0.91015,-1.34526 1.06344,-2.63949 1.29105,-10.90101 0.23249,-8.43644 0.36156,-9.48846 1.29012,-10.51307 0.8293,-0.91514 1.09639,-2.16727 1.36087,-6.38049 0.26721,-4.25879 0.58247,-5.71654 1.68009,-7.7725 1.02191,-1.91404 1.35109,-3.27904 1.35109,-5.60241 0,-2.28813 0.27548,-3.45869 1.07987,-4.58834 0.59391,-0.83412 1.25186,-2.78395 1.46206,-4.33303 0.21659,-1.59657 0.81169,-3.2905 1.37379,-3.9109 0.80253,-0.8858 1.02483,-2.05046 1.16606,-6.10944 0.17268,-4.9619 0.15329,-5.05566 -1.82468,-8.85759 -2.7113,-5.21143 -3.61914,-5.32722 -8.09221,-1.03195 -2.13512,2.05026 -3.47093,3.8128 -3.85096,5.08112 -0.32,1.06807 -1.51842,2.85649 -2.66309,3.97429 -2.2891,2.23519 -2.51411,3.07106 -1.21358,4.50814 0.58204,0.64314 0.96541,2.27216 1.16447,4.94794 0.21199,2.85165 0.62752,4.52203 1.45673,5.85803 1.18223,1.9047 1.50907,4.78676 0.68959,6.08085 -0.37649,0.59447 -0.87417,0.51484 -2.89497,-0.46342 -1.98715,-0.96196 -2.78619,-1.0953 -4.30278,-0.71794 -2.53946,0.63186 -3.16267,2.11063 -3.17186,7.52643 -0.008,4.0605 -0.13281,4.62918 -1.34495,6.06959 -2.42042,2.87651 -3.93149,1.88704 -7.09793,-4.64792 -1.54244,-3.18323 -1.89592,-4.49451 -1.89592,-7.03302 0,-2.45428 -0.2481,-3.43524 -1.16222,-4.59583 -1.05517,-1.3396 -1.1778,-2.13369 -1.33088,-8.6172 -0.15677,-6.63933 -0.0854,-7.29436 1.01366,-9.31269 0.92579,-1.70006 1.24312,-3.29511 1.46282,-7.3528 0.23139,-4.27434 0.47767,-5.43239 1.40614,-6.61277 0.66932,-0.85085 1.26854,-2.57478 1.47816,-4.25248 0.19395,-1.55189 0.79204,-3.38037 1.32925,-4.06335 0.53725,-0.68295 1.12414,-2.365 1.30425,-3.7379 0.18022,-1.37288 0.87564,-3.44636 1.54564,-4.60777 0.66996,-1.16137 1.21898,-2.90476 1.22005,-3.87416 9.1e-4,-0.96942 0.51333,-2.57614 1.13844,-3.57054 0.79045,-1.25744 1.23118,-2.99199 1.44744,-5.69651 0.21873,-2.73544 0.63151,-4.34387 1.392,-5.42387 0.59462,-0.84441 1.2126,-2.61155 1.37334,-3.92704 0.16082,-1.31547 0.89551,-3.52378 1.63283,-4.9073 1.53548,-2.88133 1.42133,-4.9265 -0.44324,-7.93937 -1.43677,-2.32161 -1.59755,-8.13501 -0.26642,-9.6312 0.46889,-0.527 1.23542,-1.88485 1.70344,-3.0174 1.33341,-3.22673 2.50292,-4.11583 10.86008,-8.25657 4.30811,-2.13456 8.3983,-4.48616 9.08924,-5.22577 1.73299,-1.85497 3.71221,-2.79625 5.8797,-2.79625 3.68886,0 4.80518,-2.93671 2.31812,-6.09844 -0.57282,-0.72826 -1.00107,-2.07485 -1.00107,-3.14776 0,-1.03131 -0.47153,-2.75481 -1.04781,-3.83007 -1.195,-2.22963 -1.06902,-2.6827 0.88229,-3.17241 0.76662,-0.19233 2.02506,-0.79928 2.79653,-1.34863 1.77463,-1.26365 2.91126,-1.25562 4.85909,0.0343 2.49538,1.65266 4.20892,1.34454 6.99007,-1.2569 2.82768,-2.64496 4.57772,-3.12916 9.92653,-2.74646 l 3.65239,0.26129 5.85791,5.91789 5.85792,5.91792 v 4.99286 c 0,6.22888 0.5732,7.05911 4.87363,7.05911 1.5441,0 3.46183,0.24783 4.26159,0.5506 0.79979,0.30286 3.66251,2.71447 6.36149,5.35917 3.23761,3.17251 5.44842,4.92581 6.49768,5.15315 2.25652,0.4889 6.14465,4.65454 8.24976,8.8386 2.07696,4.12803 2.15975,4.94119 0.70367,6.91068 -1.54936,2.09559 -1.459,5.36712 0.23542,8.51975 1.17515,2.18663 1.36001,3.15041 1.36001,7.09074 0,4.30364 0.0734,4.60815 1.3015,5.41297 1.69901,1.11326 5.35807,0.72923 7.25283,-0.76118 0.95552,-0.75165 2.1342,-1.10089 3.71519,-1.10089 2.0011,0 2.588,0.27236 4.3211,2.00544 1.95717,1.95723 2.00542,2.09473 2.00542,5.71487 v 3.70937 l -3.87418,4.06703 c -3.87339,4.06622 -3.87418,4.06764 -3.87418,6.95234 0,2.62677 0.1786,3.08101 1.9929,5.06916 2.49452,2.73348 3.1727,4.02015 3.1727,6.01938 0,0.88819 1.12997,3.7521 2.58276,6.54594 1.42054,2.7318 2.58277,5.6049 2.58277,6.38467 0,0.77975 0.61356,2.55649 1.3635,3.94833 1.74287,3.23471 1.81524,6.1571 0.20635,8.33328 -0.89493,1.21044 -1.24894,2.53052 -1.44554,5.39025 -0.18506,2.69159 -0.61426,4.39811 -1.48372,5.89882 -0.67284,1.16141 -1.22333,2.78648 -1.22333,3.61134 0,0.82484 -0.83372,3.18701 -1.85275,5.24934 -2.47663,5.01235 -3.43517,5.06547 -7.87999,0.43668 -2.7768,-2.89177 -3.18121,-3.56664 -3.18121,-5.30893 0,-2.93303 -1.04759,-4.09239 -4.05888,-4.49186 -2.80429,-0.372 -3.53696,-0.96257 -3.9785,-3.20706 -0.21228,-1.07868 0.11167,-2.22648 1.15242,-4.08325 1.31027,-2.33774 1.44824,-3.06412 1.45437,-7.6564 l 0.008,-5.07362 -2.17539,-2.02902 c -4.2026,-3.91993 -6.34783,-2.35641 -6.34783,4.62659 0,3.64988 -0.19934,4.70331 -1.22544,6.47116 -0.67402,1.16141 -1.40335,2.69273 -1.62075,3.403 -0.21741,0.71029 -0.82817,1.84579 -1.35732,2.52334 -0.84375,1.08043 -0.96207,2.21385 -0.96207,9.21827 0,7.38985 0.0846,8.10506 1.1315,9.57543 0.82014,1.15182 1.21758,2.66617 1.44436,5.50361 0.2182,2.72968 0.65685,4.46174 1.44938,5.72248 1.03004,1.63862 1.13692,2.48537 1.14107,9.03975 0.005,6.77781 0.0844,7.36151 1.27716,9.29803 1.14852,1.86467 1.27424,2.62562 1.28878,7.80059 0.0135,5.10684 0.15732,6.00009 1.3075,8.1631 l 1.2914,2.42879 v 21.06961 21.07079 l -3.31293,3.18007 -3.3129,3.18122 h -9.14522 l -9.14521,-9.1e-4 -2.00551,-2.00422 -2.00497,-2.00415 -0.003,-16.97934 c -0.003,-16.59894 -0.0276,-17.01839 -1.13844,-18.78594 -0.79827,-1.26989 -1.23124,-2.9952 -1.45485,-5.79709 -0.21039,-2.635 -0.61071,-4.31218 -1.17959,-4.94085 -0.47375,-0.52341 -1.13223,-1.75017 -1.46334,-2.72612 -0.3311,-0.97592 -1.08947,-2.47175 -1.68528,-3.32406 -0.91272,-1.30579 -1.12625,-2.56597 -1.35663,-8.00666 l -0.27343,-6.45695 -2.36119,-4.42981 c -1.44455,-2.71022 -2.46775,-5.3753 -2.63568,-6.86537 -0.15086,-1.33953 -0.6901,-2.89472 -1.19806,-3.45601 -0.50791,-0.56126 -1.10349,-2.34688 -1.32349,-3.96811 -0.53012,-3.9064 -2.43284,-5.32304 -4.81246,-3.58304 -0.70362,0.51452 -1.00353,1.62739 -1.20776,4.48176 -0.23247,3.2477 -0.63455,4.49508 -2.77854,8.61822 -1.48465,2.85502 -2.50798,5.50359 -2.50953,6.49509 -9.1e-4,0.9208 -0.57534,2.60396 -1.27526,3.74038 -1.08884,1.76781 -1.27496,2.70789 -1.28876,6.5092 -0.0134,3.7944 -0.21443,4.81228 -1.37546,6.9735 -1.10754,2.06183 -1.40737,3.43955 -1.61866,7.43788 -0.18426,3.48466 -0.51921,5.28166 -1.1557,6.19869 -0.49298,0.71026 -1.07357,1.87251 -1.29017,2.58278 -0.21657,0.71026 -0.8863,1.98872 -1.48827,2.84107 -1.04341,1.47737 -1.10656,2.30095 -1.35277,17.65009 -0.13389,8.35028 -0.41507,12.46218 -0.64275,13.43901 -0.0134,0.059 -6.58663,6.34674 -6.60011,6.36005 h -15.09066 z"
     id="path81200-2"
     inkscape:connector-curvature="0"
     sodipodi:nodetypes="cccccccccscccccccccccccccccscccccccccsccccccccccscscccccccccssccccccsccscsccscscsccccscsscccccsscccscccccccccccccccccccccccccccsccccccccccccsccc" />
  <path
     style="opacity:1;fill:#ffffff;fill-opacity:1;stroke:none;stroke-width:3.06812453;stroke-linecap:round;stroke-linejoin:miter;stroke-miterlimit:4;stroke-dasharray:none;stroke-opacity:1"
     d="m 240.58365,408.99028 v -29.25644 c 0,-26.49481 8.8e-4,-26.51617 1.13057,-27.95238 0.85275,-1.08406 1.20191,-2.40802 1.42085,-5.38755 0.20016,-2.7235 0.61099,-4.42431 1.32307,-5.47672 0.91015,-1.34526 1.06344,-2.63949 1.29105,-10.90101 0.23249,-8.43644 0.36156,-9.48846 1.29012,-10.51307 0.8293,-0.91514 1.09639,-2.16727 1.36087,-6.38049 0.26721,-4.25879 0.58247,-5.71654 1.68009,-7.7725 1.02191,-1.91404 1.35109,-3.27904 1.35109,-5.60241 0,-2.28813 0.27548,-3.45869 1.07987,-4.58834 0.59391,-0.83412 1.25186,-2.78395 1.46206,-4.33303 0.21659,-1.59657 0.81169,-3.2905 1.37379,-3.9109 0.80253,-0.8858 1.02483,-2.05046 1.16606,-6.10944 0.17268,-4.9619 0.15329,-5.05566 -1.82468,-8.85759 -2.7113,-5.21143 -3.61914,-5.32722 -8.09221,-1.03195 -2.13512,2.05026 -3.47093,3.8128 -3.85096,5.08112 -0.32,1.06807 -1.51842,2.85649 -2.66309,3.97429 -2.2891,2.23519 -2.51411,3.07106 -1.21358,4.50814 0.58204,0.64314 0.96541,2.27216 1.16447,4.94794 0.21199,2.85165 0.62752,4.52203 1.45673,5.85803 1.18223,1.9047 1.50907,4.78676 0.68959,6.08085 -0.37649,0.59447 -0.87417,0.51484 -2.89497,-0.46342 -1.98715,-0.96196 -2.78619,-1.0953 -4.30278,-0.71794 -2.53946,0.63186 -3.16267,2.11063 -3.17186,7.52643 -0.008,4.0605 -0.13281,4.62918 -1.34495,6.06959 -2.42042,2.87651 -3.93149,1.88704 -7.09793,-4.64792 -1.54244,-3.18323 -1.89592,-4.49451 -1.89592,-7.03302 0,-2.45428 -0.2481,-3.43524 -1.16222,-4.59583 -1.05517,-1.3396 -1.1778,-2.13369 -1.33088,-8.6172 -0.15677,-6.63933 -0.0854,-7.29436 1.01366,-9.31269 0.92579,-1.70006 1.24312,-3.29511 1.46282,-7.3528 0.23139,-4.27434 0.47767,-5.43239 1.40614,-6.61277 0.66932,-0.85085 1.26854,-2.57478 1.47816,-4.25248 0.19395,-1.55189 0.79204,-3.38037 1.32925,-4.06335 0.53725,-0.68295 1.12414,-2.365 1.30425,-3.7379 0.18022,-1.37288 0.87564,-3.44636 1.54564,-4.60777 0.66996,-1.16137 1.21898,-2.90476 1.22005,-3.87416 9.1e-4,-0.96942 0.51333,-2.57614 1.13844,-3.57054 0.79045,-1.25744 1.23118,-2.99199 1.44744,-5.69651 0.21873,-2.73544 0.63151,-4.34387 1.392,-5.42387 0.59462,-0.84441 1.2126,-2.61155 1.37334,-3.92704 0.16082,-1.31547 0.89551,-3.52378 1.63283,-4.9073 1.53548,-2.88133 1.42133,-4.9265 -0.44324,-7.93937 -1.43677,-2.32161 -1.59755,-8.13501 -0.26642,-9.6312 0.46889,-0.527 1.23542,-1.88485 1.70344,-3.0174 1.33341,-3.22673 2.50292,-4.11583 10.86008,-8.25657 4.30811,-2.13456 8.3983,-4.48616 9.08924,-5.22577 1.73299,-1.85497 3.71221,-2.79625 5.8797,-2.79625 3.68886,0 4.80518,-2.93671 2.31812,-6.09844 -0.57282,-0.72826 -1.00107,-2.07485 -1.00107,-3.14776 0,-1.03131 -0.47153,-2.75481 -1.04781,-3.83007 -1.195,-2.22963 -1.06902,-2.6827 0.88229,-3.17241 0.76662,-0.19233 2.02506,-0.79928 2.79653,-1.34863 1.77463,-1.26365 2.91126,-1.25562 4.85909,0.0343 2.49538,1.65266 4.20892,1.34454 6.99007,-1.2569 2.82768,-2.64496 4.57772,-3.12916 9.92653,-2.74646 l 3.65239,0.26129 5.85791,5.91789 5.85792,5.91792 v 4.99286 c 0,6.22888 0.5732,7.05911 4.87363,7.05911 1.5441,0 3.46183,0.24783 4.26159,0.5506 0.79979,0.30286 3.66251,2.71447 6.36149,5.35917 3.23761,3.17251 5.44842,4.92581 6.49768,5.15315 2.25652,0.4889 6.14465,4.65454 8.24976,8.8386 2.07696,4.12803 2.15975,4.94119 0.70367,6.91068 -1.54936,2.09559 -1.459,5.36712 0.23542,8.51975 1.17515,2.18663 1.36001,3.15041 1.36001,7.09074 0,4.30364 0.0734,4.60815 1.3015,5.41297 1.69901,1.11326 5.35807,0.72923 7.25283,-0.76118 0.95552,-0.75165 2.1342,-1.10089 3.71519,-1.10089 2.0011,0 2.588,0.27236 4.3211,2.00544 1.95717,1.95723 2.00542,2.09473 2.00542,5.71487 v 3.70937 l -3.87418,4.06703 c -3.87339,4.06622 -3.87418,4.06764 -3.87418,6.95234 0,2.62677 0.1786,3.08101 1.9929,5.06916 2.49452,2.73348 3.1727,4.02015 3.1727,6.01938 0,0.88819 1.12997,3.7521 2.58276,6.54594 1.42054,2.7318 2.58277,5.6049 2.58277,6.38467 0,0.77975 0.61356,2.55649 1.3635,3.94833 1.74287,3.23471 1.81524,6.1571 0.20635,8.33328 -0.89493,1.21044 -1.24894,2.53052 -1.44554,5.39025 -0.18506,2.69159 -0.61426,4.39811 -1.48372,5.89882 -0.67284,1.16141 -1.22333,2.78648 -1.22333,3.61134 0,0.82484 -0.83372,3.18701 -1.85275,5.24934 -2.47663,5.01235 -3.43517,5.06547 -7.87999,0.43668 -2.7768,-2.89177 -3.18121,-3.56664 -3.18121,-5.30893 0,-2.93303 -1.04759,-4.09239 -4.05888,-4.49186 -2.80429,-0.372 -3.53696,-0.96257 -3.9785,-3.20706 -0.21228,-1.07868 0.11167,-2.22648 1.15242,-4.08325 1.31027,-2.33774 1.44824,-3.06412 1.45437,-7.6564 l 0.008,-5.07362 -2.17539,-2.02902 c -4.2026,-3.91993 -6.34783,-2.35641 -6.34783,4.62659 0,3.64988 -0.19934,4.70331 -1.22544,6.47116 -0.67402,1.16141 -1.40335,2.69273 -1.62075,3.403 -0.21741,0.71029 -0.82817,1.84579 -1.35732,2.52334 -0.84375,1.08043 -0.96207,2.21385 -0.96207,9.21827 0,7.38985 0.0846,8.10506 1.1315,9.57543 0.82014,1.15182 1.21758,2.66617 1.44436,5.50361 0.2182,2.72968 0.65685,4.46174 1.44938,5.72248 1.03004,1.63862 1.13692,2.48537 1.14107,9.03975 0.005,6.77781 0.0844,7.36151 1.27716,9.29803 1.14852,1.86467 1.27424,2.62562 1.28878,7.80059 0.0135,5.10684 0.15732,6.00009 1.3075,8.1631 l 1.2914,2.42879 v 21.06961 21.07079 l -3.31293,3.18007 -3.3129,3.18122 h -9.14522 l -9.14521,-9.1e-4 -2.00551,-2.00422 -2.00497,-2.00415 -0.003,-16.97934 c -0.003,-16.59894 -0.0276,-17.01839 -1.13844,-18.78594 -0.79827,-1.26989 -1.23124,-2.9952 -1.45485,-5.79709 -0.21039,-2.635 -0.61071,-4.31218 -1.17959,-4.94085 -0.47375,-0.52341 -1.13223,-1.75017 -1.46334,-2.72612 -0.3311,-0.97592 -1.08947,-2.47175 -1.68528,-3.32406 -0.91272,-1.30579 -1.12625,-2.56597 -1.35663,-8.00666 l -0.27343,-6.45695 -2.36119,-4.42981 c -1.44455,-2.71022 -2.46775,-5.3753 -2.63568,-6.86537 -0.15086,-1.33953 -0.6901,-2.89472 -1.19806,-3.45601 -0.50791,-0.56126 -1.10349,-2.34688 -1.32349,-3.96811 -0.53012,-3.9064 -2.43284,-5.32304 -4.81246,-3.58304 -0.70362,0.51452 -1.00353,1.62739 -1.20776,4.48176 -0.23247,3.2477 -0.63455,4.49508 -2.77854,8.61822 -1.48465,2.85502 -2.50798,5.50359 -2.50953,6.49509 -9.1e-4,0.9208 -0.57534,2.60396 -1.27526,3.74038 -1.08884,1.76781 -1.27496,2.70789 -1.28876,6.5092 -0.0134,3.7944 -0.21443,4.81228 -1.37546,6.9735 -1.10754,2.06183 -1.40737,3.43955 -1.61866,7.43788 -0.18426,3.48466 -0.51921,5.28166 -1.1557,6.19869 -0.49298,0.71026 -1.07357,1.87251 -1.29017,2.58278 -0.21657,0.71026 -0.8863,1.98872 -1.48827,2.84107 -1.04341,1.47737 -1.10656,2.30095 -1.35277,17.65009 -0.13389,8.35028 -0.41507,12.46218 -0.64275,13.43901 -0.0134,0.059 -6.58663,6.34674 -6.60011,6.36005 h -15.09066 z"
     id="path81200"
     inkscape:connector-curvature="0"
     sodipodi:nodetypes="cccccccccscccccccccccccccccscccccccccsccccccccccscscccccccccssccccccsccscsccscscsccccscsscccccsscccscccccccccccccccccccccccccccsccccccccccccsccc" />
</svg>
